{
    "asset" : {
        "generator" : "Khronos Blender glTF 2.0 I/O",
        "version" : "2.0"
    },
    "scene" : 0,
    "scenes" : [
        {
            "name" : "Scene",
            "nodes" : [
                0
            ]
        }
    ],
    "nodes" : [
        {
            "mesh" : 0,
            "name" : "Section1",
            "rotation" : [
                0.7071068286895752,
                0,
                0,
                0.7071067094802856
            ],
            "scale" : [
                6.404210567474365,
                6.239999771118164,
                6.239999771118164
            ]
        }
    ],
    "materials" : [
        {
            "name" : "Material_2",
            "pbrMetallicRoughness" : {
                "baseColorFactor" : [
                    0.20966710150241852,
                    0.22199566662311554,
                    0.22759564220905304,
                    1
                ],
                "metallicFactor" : 0,
                "roughnessFactor" : 0.11385715007781982
            }
        },
        {
            "name" : "Material_0",
            "pbrMetallicRoughness" : {
                "baseColorTexture" : {
                    "index" : 0,
                    "texCoord" : 0
                },
                "metallicFactor" : 0,
                "roughnessFactor" : 0.33290475606918335
            }
        },
        {
            "name" : "Material_1",
            "normalTexture" : {
                "index" : 1,
                "texCoord" : 0
            },
            "pbrMetallicRoughness" : {
                "baseColorTexture" : {
                    "index" : 2,
                    "texCoord" : 0
                },
                "metallicFactor" : 0.07619045674800873,
                "roughnessFactor" : 0.5090952515602112
            }
        },
        {
            "name" : "Material_3",
            "normalTexture" : {
                "index" : 3,
                "texCoord" : 0
            },
            "pbrMetallicRoughness" : {
                "baseColorTexture" : {
                    "index" : 4,
                    "texCoord" : 0
                },
                "metallicFactor" : 0.09047621488571167,
                "roughnessFactor" : 0.27619099617004395
            }
        },
        {
            "name" : "Material_4",
            "normalTexture" : {
                "index" : 5,
                "texCoord" : 0
            },
            "pbrMetallicRoughness" : {
                "baseColorFactor" : [
                    0.20561954379081726,
                    0.20561954379081726,
                    0.20561954379081726,
                    1
                ],
                "metallicFactor" : 1,
                "roughnessFactor" : 0.2281428575515747
            }
        },
        {
            "emissiveFactor" : [
                1,
                0,
                0.000998774659819901
            ],
            "name" : "Emit",
            "pbrMetallicRoughness" : {
                "baseColorFactor" : [
                    0.800000011920929,
                    0.800000011920929,
                    0.800000011920929,
                    1
                ],
                "metallicFactor" : 0,
                "roughnessFactor" : 0.5
            }
        }
    ],
    "meshes" : [
        {
            "name" : "Mesh_2.010",
            "primitives" : [
                {
                    "attributes" : {
                        "POSITION" : 0,
                        "NORMAL" : 1,
                        "TEXCOORD_0" : 2
                    },
                    "indices" : 3,
                    "material" : 0
                },
                {
                    "attributes" : {
                        "POSITION" : 4,
                        "NORMAL" : 5,
                        "TEXCOORD_0" : 6
                    },
                    "indices" : 7,
                    "material" : 1
                },
                {
                    "attributes" : {
                        "POSITION" : 8,
                        "NORMAL" : 9,
                        "TEXCOORD_0" : 10
                    },
                    "indices" : 11,
                    "material" : 2
                },
                {
                    "attributes" : {
                        "POSITION" : 12,
                        "NORMAL" : 13,
                        "TEXCOORD_0" : 14
                    },
                    "indices" : 15,
                    "material" : 3
                },
                {
                    "attributes" : {
                        "POSITION" : 16,
                        "NORMAL" : 17,
                        "TEXCOORD_0" : 18
                    },
                    "indices" : 19,
                    "material" : 4
                },
                {
                    "attributes" : {
                        "POSITION" : 20,
                        "NORMAL" : 21,
                        "TEXCOORD_0" : 22
                    },
                    "indices" : 23,
                    "material" : 5
                }
            ]
        }
    ],
    "textures" : [
        {
            "source" : 0
        },
        {
            "source" : 1
        },
        {
            "source" : 2
        },
        {
            "source" : 3
        },
        {
            "source" : 4
        },
        {
            "source" : 5
        }
    ],
    "images" : [
        {
            "mimeType" : "image/png",
            "name" : "concrete_wallpanelholes_2k_d.png",
            "uri" : "concrete_wallpanelholes_2k_d.png"
        },
        {
            "mimeType" : "image/jpeg",
            "name" : "MetalSteelPlates_normal.jpg",
            "uri" : "MetalSteelPlates_normal.jpg"
        },
        {
            "mimeType" : "image/jpeg",
            "name" : "RustyAnvilIron_basecolor.jpg",
            "uri" : "RustyAnvilIron_basecolor.jpg"
        },
        {
            "mimeType" : "image/png",
            "name" : "Metal_SciFiCompartmentPanelsPaint_1k_n.png",
            "uri" : "Metal_SciFiCompartmentPanelsPaint_1k_n.png"
        },
        {
            "mimeType" : "image/png",
            "name" : "Concrete_TinyCracks_512_Diffuse.png",
            "uri" : "Concrete_TinyCracks_512_Diffuse.png"
        },
        {
            "mimeType" : "image/png",
            "name" : "Metal_ReinforcedWallPanelsWhiteGold_2k_n.tga",
            "uri" : "Metal_ReinforcedWallPanelsWhiteGold_2k_n.png"
        }
    ],
    "accessors" : [
        {
            "bufferView" : 0,
            "componentType" : 5126,
            "count" : 366,
            "max" : [
                39.97345733642578,
                -38.461544036865234,
                -0.5720300078392029
            ],
            "min" : [
                19.986846923828125,
                -40.93353271484375,
                -3.7720301151275635
            ],
            "type" : "VEC3"
        },
        {
            "bufferView" : 1,
            "componentType" : 5126,
            "count" : 366,
            "type" : "VEC3"
        },
        {
            "bufferView" : 2,
            "componentType" : 5126,
            "count" : 366,
            "type" : "VEC2"
        },
        {
            "bufferView" : 3,
            "componentType" : 5123,
            "count" : 636,
            "type" : "SCALAR"
        },
        {
            "bufferView" : 4,
            "componentType" : 5126,
            "count" : 628,
            "max" : [
                39.97345733642578,
                -20.51282501220703,
                1.205783490831891e-07
            ],
            "min" : [
                19.987510681152344,
                -35.89744186401367,
                -15.000001907348633
            ],
            "type" : "VEC3"
        },
        {
            "bufferView" : 5,
            "componentType" : 5126,
            "count" : 628,
            "type" : "VEC3"
        },
        {
            "bufferView" : 6,
            "componentType" : 5126,
            "count" : 628,
            "type" : "VEC2"
        },
        {
            "bufferView" : 7,
            "componentType" : 5123,
            "count" : 1179,
            "type" : "SCALAR"
        },
        {
            "bufferView" : 8,
            "componentType" : 5126,
            "count" : 811,
            "max" : [
                39.97345733642578,
                -35.89744186401367,
                1.2936327209445153e-07
            ],
            "min" : [
                19.98131561279297,
                -38.512813568115234,
                -7.500000953674316
            ],
            "type" : "VEC3"
        },
        {
            "bufferView" : 9,
            "componentType" : 5126,
            "count" : 811,
            "type" : "VEC3"
        },
        {
            "bufferView" : 10,
            "componentType" : 5126,
            "count" : 811,
            "type" : "VEC2"
        },
        {
            "bufferView" : 11,
            "componentType" : 5123,
            "count" : 1320,
            "type" : "SCALAR"
        },
        {
            "bufferView" : 12,
            "componentType" : 5126,
            "count" : 440,
            "max" : [
                39.97370147705078,
                -20.5128173828125,
                1.3780388030681934e-07
            ],
            "min" : [
                19.986848831176758,
                -42.10255813598633,
                -0.019999928772449493
            ],
            "type" : "VEC3"
        },
        {
            "bufferView" : 13,
            "componentType" : 5126,
            "count" : 440,
            "type" : "VEC3"
        },
        {
            "bufferView" : 14,
            "componentType" : 5126,
            "count" : 440,
            "type" : "VEC2"
        },
        {
            "bufferView" : 15,
            "componentType" : 5123,
            "count" : 513,
            "type" : "SCALAR"
        },
        {
            "bufferView" : 16,
            "componentType" : 5126,
            "count" : 344,
            "max" : [
                39.97370147705078,
                -20.5128173828125,
                1.4641665302406182e-07
            ],
            "min" : [
                19.986848831176758,
                -43.589752197265625,
                6.890188330999081e-08
            ],
            "type" : "VEC3"
        },
        {
            "bufferView" : 17,
            "componentType" : 5126,
            "count" : 344,
            "type" : "VEC3"
        },
        {
            "bufferView" : 18,
            "componentType" : 5126,
            "count" : 344,
            "type" : "VEC2"
        },
        {
            "bufferView" : 19,
            "componentType" : 5123,
            "count" : 492,
            "type" : "SCALAR"
        },
        {
            "bufferView" : 20,
            "componentType" : 5126,
            "count" : 445,
            "max" : [
                39.97370147705078,
                -20.5128173828125,
                1.4142111126602686e-07
            ],
            "min" : [
                19.986846923828125,
                -42.10255813598633,
                -0.019999928772449493
            ],
            "type" : "VEC3"
        },
        {
            "bufferView" : 21,
            "componentType" : 5126,
            "count" : 445,
            "type" : "VEC3"
        },
        {
            "bufferView" : 22,
            "componentType" : 5126,
            "count" : 445,
            "type" : "VEC2"
        },
        {
            "bufferView" : 23,
            "componentType" : 5123,
            "count" : 1011,
            "type" : "SCALAR"
        }
    ],
    "bufferViews" : [
        {
            "buffer" : 0,
            "byteLength" : 4392,
            "byteOffset" : 0
        },
        {
            "buffer" : 0,
            "byteLength" : 4392,
            "byteOffset" : 4392
        },
        {
            "buffer" : 0,
            "byteLength" : 2928,
            "byteOffset" : 8784
        },
        {
            "buffer" : 0,
            "byteLength" : 1272,
            "byteOffset" : 11712
        },
        {
            "buffer" : 0,
            "byteLength" : 7536,
            "byteOffset" : 12984
        },
        {
            "buffer" : 0,
            "byteLength" : 7536,
            "byteOffset" : 20520
        },
        {
            "buffer" : 0,
            "byteLength" : 5024,
            "byteOffset" : 28056
        },
        {
            "buffer" : 0,
            "byteLength" : 2358,
            "byteOffset" : 33080
        },
        {
            "buffer" : 0,
            "byteLength" : 9732,
            "byteOffset" : 35440
        },
        {
            "buffer" : 0,
            "byteLength" : 9732,
            "byteOffset" : 45172
        },
        {
            "buffer" : 0,
            "byteLength" : 6488,
            "byteOffset" : 54904
        },
        {
            "buffer" : 0,
            "byteLength" : 2640,
            "byteOffset" : 61392
        },
        {
            "buffer" : 0,
            "byteLength" : 5280,
            "byteOffset" : 64032
        },
        {
            "buffer" : 0,
            "byteLength" : 5280,
            "byteOffset" : 69312
        },
        {
            "buffer" : 0,
            "byteLength" : 3520,
            "byteOffset" : 74592
        },
        {
            "buffer" : 0,
            "byteLength" : 1026,
            "byteOffset" : 78112
        },
        {
            "buffer" : 0,
            "byteLength" : 4128,
            "byteOffset" : 79140
        },
        {
            "buffer" : 0,
            "byteLength" : 4128,
            "byteOffset" : 83268
        },
        {
            "buffer" : 0,
            "byteLength" : 2752,
            "byteOffset" : 87396
        },
        {
            "buffer" : 0,
            "byteLength" : 984,
            "byteOffset" : 90148
        },
        {
            "buffer" : 0,
            "byteLength" : 5340,
            "byteOffset" : 91132
        },
        {
            "buffer" : 0,
            "byteLength" : 5340,
            "byteOffset" : 96472
        },
        {
            "buffer" : 0,
            "byteLength" : 3560,
            "byteOffset" : 101812
        },
        {
            "buffer" : 0,
            "byteLength" : 2022,
            "byteOffset" : 105372
        }
    ],
    "buffers" : [
        {
            "byteLength" : 107396,
            "uri" : "Section1.bin"
        }
    ]
}
