{
    "asset" : {
        "generator" : "Khronos Blender glTF 2.0 I/O",
        "version" : "2.0"
    },
    "scene" : 0,
    "scenes" : [
        {
            "name" : "Scene",
            "nodes" : [
                0,
                1
            ]
        }
    ],
    "nodes" : [
        {
            "mesh" : 0,
            "name" : "Section6",
            "rotation" : [
                0.7071068286895752,
                0,
                0,
                0.7071067094802856
            ],
            "scale" : [
                6.404210567474365,
                6.239999771118164,
                6.239999771118164
            ]
        },
        {
            "mesh" : 1,
            "name" : "Section6_collider",
            "rotation" : [
                0.7071068286895752,
                0,
                0,
                0.7071067094802856
            ],
            "scale" : [
                6.404210567474365,
                6.239999771118164,
                6.239999771118164
            ]
        }
    ],
    "materials" : [
        {
            "name" : "Material_0",
            "pbrMetallicRoughness" : {
                "baseColorTexture" : {
                    "index" : 0,
                    "texCoord" : 0
                },
                "metallicFactor" : 0,
                "roughnessFactor" : 0.33290475606918335
            }
        },
        {
            "name" : "Material_1",
            "normalTexture" : {
                "index" : 1,
                "texCoord" : 0
            },
            "pbrMetallicRoughness" : {
                "baseColorTexture" : {
                    "index" : 2,
                    "texCoord" : 0
                },
                "metallicFactor" : 0.07619045674800873,
                "roughnessFactor" : 0.5090952515602112
            }
        },
        {
            "name" : "Material_3",
            "normalTexture" : {
                "index" : 3,
                "texCoord" : 0
            },
            "pbrMetallicRoughness" : {
                "baseColorTexture" : {
                    "index" : 4,
                    "texCoord" : 0
                },
                "metallicFactor" : 0.09047621488571167,
                "roughnessFactor" : 0.27619099617004395
            }
        },
        {
            "name" : "Material_4",
            "normalTexture" : {
                "index" : 5,
                "texCoord" : 0
            },
            "pbrMetallicRoughness" : {
                "baseColorFactor" : [
                    0.20561954379081726,
                    0.20561954379081726,
                    0.20561954379081726,
                    1
                ],
                "metallicFactor" : 1,
                "roughnessFactor" : 0.2281428575515747
            }
        },
        {
            "name" : "Material_5",
            "pbrMetallicRoughness" : {
                "baseColorTexture" : {
                    "index" : 6,
                    "texCoord" : 0
                },
                "metallicFactor" : 0.09047621488571167,
                "roughnessFactor" : 0.27619099617004395
            }
        },
        {
            "emissiveFactor" : [
                1,
                0,
                0.000998774659819901
            ],
            "name" : "Emit",
            "pbrMetallicRoughness" : {
                "baseColorFactor" : [
                    0.800000011920929,
                    0.800000011920929,
                    0.800000011920929,
                    1
                ],
                "metallicFactor" : 0,
                "roughnessFactor" : 0.5
            }
        }
    ],
    "meshes" : [
        {
            "name" : "Mesh_2.020",
            "primitives" : [
                {
                    "attributes" : {
                        "POSITION" : 0,
                        "NORMAL" : 1,
                        "TEXCOORD_0" : 2
                    },
                    "indices" : 3,
                    "material" : 0
                },
                {
                    "attributes" : {
                        "POSITION" : 4,
                        "NORMAL" : 5,
                        "TEXCOORD_0" : 6
                    },
                    "indices" : 7,
                    "material" : 1
                },
                {
                    "attributes" : {
                        "POSITION" : 8,
                        "NORMAL" : 9,
                        "TEXCOORD_0" : 10
                    },
                    "indices" : 11,
                    "material" : 2
                },
                {
                    "attributes" : {
                        "POSITION" : 12,
                        "NORMAL" : 13,
                        "TEXCOORD_0" : 14
                    },
                    "indices" : 15,
                    "material" : 3
                },
                {
                    "attributes" : {
                        "POSITION" : 16,
                        "NORMAL" : 17,
                        "TEXCOORD_0" : 18
                    },
                    "indices" : 19,
                    "material" : 4
                },
                {
                    "attributes" : {
                        "POSITION" : 20,
                        "NORMAL" : 21,
                        "TEXCOORD_0" : 22
                    },
                    "indices" : 23,
                    "material" : 5
                }
            ]
        },
        {
            "name" : "Mesh_2.020",
            "primitives" : [
                {
                    "attributes" : {
                        "POSITION" : 24,
                        "NORMAL" : 25,
                        "TEXCOORD_0" : 26
                    },
                    "indices" : 27,
                    "material" : 0
                },
                {
                    "attributes" : {
                        "POSITION" : 28,
                        "NORMAL" : 29,
                        "TEXCOORD_0" : 30
                    },
                    "indices" : 31,
                    "material" : 1
                },
                {
                    "attributes" : {
                        "POSITION" : 32,
                        "NORMAL" : 33,
                        "TEXCOORD_0" : 34
                    },
                    "indices" : 35,
                    "material" : 2
                },
                {
                    "attributes" : {
                        "POSITION" : 36,
                        "NORMAL" : 37,
                        "TEXCOORD_0" : 38
                    },
                    "indices" : 39,
                    "material" : 3
                },
                {
                    "attributes" : {
                        "POSITION" : 40,
                        "NORMAL" : 41,
                        "TEXCOORD_0" : 42
                    },
                    "indices" : 43,
                    "material" : 4
                },
                {
                    "attributes" : {
                        "POSITION" : 44,
                        "NORMAL" : 45,
                        "TEXCOORD_0" : 46
                    },
                    "indices" : 47,
                    "material" : 5
                }
            ]
        }
    ],
    "textures" : [
        {
            "source" : 0
        },
        {
            "source" : 1
        },
        {
            "source" : 2
        },
        {
            "source" : 3
        },
        {
            "source" : 4
        },
        {
            "source" : 5
        },
        {
            "source" : 6
        }
    ],
    "images" : [
        {
            "mimeType" : "image/png",
            "name" : "concrete_wallpanelholes_2k_d.png",
            "uri" : "concrete_wallpanelholes_2k_d.png"
        },
        {
            "mimeType" : "image/jpeg",
            "name" : "MetalSteelPlates_normal.jpg",
            "uri" : "MetalSteelPlates_normal.jpg"
        },
        {
            "mimeType" : "image/jpeg",
            "name" : "RustyAnvilIron_basecolor.jpg",
            "uri" : "RustyAnvilIron_basecolor.jpg"
        },
        {
            "mimeType" : "image/png",
            "name" : "Metal_SciFiCompartmentPanelsPaint_1k_n.png",
            "uri" : "Metal_SciFiCompartmentPanelsPaint_1k_n.png"
        },
        {
            "mimeType" : "image/png",
            "name" : "Concrete_TinyCracks_512_Diffuse.png",
            "uri" : "Concrete_TinyCracks_512_Diffuse.png"
        },
        {
            "mimeType" : "image/png",
            "name" : "Metal_ReinforcedWallPanelsWhiteGold_2k_n.tga",
            "uri" : "Metal_ReinforcedWallPanelsWhiteGold_2k_n.png"
        },
        {
            "mimeType" : "image/png",
            "name" : "Concrete_TinyCracks_512_Diffuse.png",
            "uri" : "Concrete_TinyCracks_512_Diffuse.png"
        }
    ],
    "accessors" : [
        {
            "bufferView" : 0,
            "componentType" : 5126,
            "count" : 294,
            "max" : [
                79.94691467285156,
                -7.6923089027404785,
                2.303534984093858e-06
            ],
            "min" : [
                59.96054458618164,
                -20.51282501220703,
                -62.50000762939453
            ],
            "type" : "VEC3"
        },
        {
            "bufferView" : 1,
            "componentType" : 5126,
            "count" : 294,
            "type" : "VEC3"
        },
        {
            "bufferView" : 2,
            "componentType" : 5126,
            "count" : 294,
            "type" : "VEC2"
        },
        {
            "bufferView" : 3,
            "componentType" : 5123,
            "count" : 618,
            "type" : "SCALAR"
        },
        {
            "bufferView" : 4,
            "componentType" : 5126,
            "count" : 555,
            "max" : [
                79.94691467285156,
                -2.512821674346924,
                7.026789603514771e-07
            ],
            "min" : [
                59.96097183227539,
                -5.128206253051758,
                -7.500000953674316
            ],
            "type" : "VEC3"
        },
        {
            "bufferView" : 5,
            "componentType" : 5126,
            "count" : 555,
            "type" : "VEC3"
        },
        {
            "bufferView" : 6,
            "componentType" : 5126,
            "count" : 555,
            "type" : "VEC2"
        },
        {
            "bufferView" : 7,
            "componentType" : 5123,
            "count" : 942,
            "type" : "SCALAR"
        },
        {
            "bufferView" : 8,
            "componentType" : 5126,
            "count" : 390,
            "max" : [
                79.94740295410156,
                -1.4871795177459717,
                -0.019999928772449493
            ],
            "min" : [
                59.960548400878906,
                -20.51282501220703,
                -0.019999992102384567
            ],
            "type" : "VEC3"
        },
        {
            "bufferView" : 9,
            "componentType" : 5126,
            "count" : 390,
            "type" : "VEC3"
        },
        {
            "bufferView" : 10,
            "componentType" : 5126,
            "count" : 390,
            "type" : "VEC2"
        },
        {
            "bufferView" : 11,
            "componentType" : 5123,
            "count" : 441,
            "type" : "SCALAR"
        },
        {
            "bufferView" : 12,
            "componentType" : 5126,
            "count" : 337,
            "max" : [
                79.94740295410156,
                7.196523650436493e-13,
                6.890188330999081e-08
            ],
            "min" : [
                59.960548400878906,
                -20.5128173828125,
                -2.2315507189514527e-13
            ],
            "type" : "VEC3"
        },
        {
            "bufferView" : 13,
            "componentType" : 5126,
            "count" : 337,
            "type" : "VEC3"
        },
        {
            "bufferView" : 14,
            "componentType" : 5126,
            "count" : 337,
            "type" : "VEC2"
        },
        {
            "bufferView" : 15,
            "componentType" : 5123,
            "count" : 483,
            "type" : "SCALAR"
        },
        {
            "bufferView" : 16,
            "componentType" : 5126,
            "count" : 56,
            "max" : [
                77.50000762939453,
                -5.128206253051758,
                1.708029913061182e-06
            ],
            "min" : [
                62.50000762939453,
                -20.51282501220703,
                1.722547438021138e-08
            ],
            "type" : "VEC3"
        },
        {
            "bufferView" : 17,
            "componentType" : 5126,
            "count" : 56,
            "type" : "VEC3"
        },
        {
            "bufferView" : 18,
            "componentType" : 5126,
            "count" : 56,
            "type" : "VEC2"
        },
        {
            "bufferView" : 19,
            "componentType" : 5123,
            "count" : 72,
            "type" : "SCALAR"
        },
        {
            "bufferView" : 20,
            "componentType" : 5126,
            "count" : 409,
            "max" : [
                79.94740295410156,
                -1.4871795177459717,
                1.9676381270983256e-06
            ],
            "min" : [
                59.960548400878906,
                -20.51282501220703,
                -0.019999992102384567
            ],
            "type" : "VEC3"
        },
        {
            "bufferView" : 21,
            "componentType" : 5126,
            "count" : 409,
            "type" : "VEC3"
        },
        {
            "bufferView" : 22,
            "componentType" : 5126,
            "count" : 409,
            "type" : "VEC2"
        },
        {
            "bufferView" : 23,
            "componentType" : 5123,
            "count" : 903,
            "type" : "SCALAR"
        },
        {
            "bufferView" : 24,
            "componentType" : 5126,
            "count" : 294,
            "max" : [
                79.94691467285156,
                -7.6923089027404785,
                2.303534984093858e-06
            ],
            "min" : [
                59.96054458618164,
                -20.51282501220703,
                -62.50000762939453
            ],
            "type" : "VEC3"
        },
        {
            "bufferView" : 25,
            "componentType" : 5126,
            "count" : 294,
            "type" : "VEC3"
        },
        {
            "bufferView" : 26,
            "componentType" : 5126,
            "count" : 294,
            "type" : "VEC2"
        },
        {
            "bufferView" : 27,
            "componentType" : 5123,
            "count" : 618,
            "type" : "SCALAR"
        },
        {
            "bufferView" : 28,
            "componentType" : 5126,
            "count" : 555,
            "max" : [
                79.94691467285156,
                -2.512821674346924,
                7.026789603514771e-07
            ],
            "min" : [
                59.96097183227539,
                -5.128206253051758,
                -7.500000953674316
            ],
            "type" : "VEC3"
        },
        {
            "bufferView" : 29,
            "componentType" : 5126,
            "count" : 555,
            "type" : "VEC3"
        },
        {
            "bufferView" : 30,
            "componentType" : 5126,
            "count" : 555,
            "type" : "VEC2"
        },
        {
            "bufferView" : 31,
            "componentType" : 5123,
            "count" : 942,
            "type" : "SCALAR"
        },
        {
            "bufferView" : 32,
            "componentType" : 5126,
            "count" : 390,
            "max" : [
                79.94740295410156,
                -1.4871795177459717,
                -0.019999928772449493
            ],
            "min" : [
                59.960548400878906,
                -20.51282501220703,
                -0.019999992102384567
            ],
            "type" : "VEC3"
        },
        {
            "bufferView" : 33,
            "componentType" : 5126,
            "count" : 390,
            "type" : "VEC3"
        },
        {
            "bufferView" : 34,
            "componentType" : 5126,
            "count" : 390,
            "type" : "VEC2"
        },
        {
            "bufferView" : 35,
            "componentType" : 5123,
            "count" : 441,
            "type" : "SCALAR"
        },
        {
            "bufferView" : 36,
            "componentType" : 5126,
            "count" : 337,
            "max" : [
                79.94740295410156,
                7.196523650436493e-13,
                6.890188330999081e-08
            ],
            "min" : [
                59.960548400878906,
                -20.5128173828125,
                -2.2315507189514527e-13
            ],
            "type" : "VEC3"
        },
        {
            "bufferView" : 37,
            "componentType" : 5126,
            "count" : 337,
            "type" : "VEC3"
        },
        {
            "bufferView" : 38,
            "componentType" : 5126,
            "count" : 337,
            "type" : "VEC2"
        },
        {
            "bufferView" : 39,
            "componentType" : 5123,
            "count" : 483,
            "type" : "SCALAR"
        },
        {
            "bufferView" : 40,
            "componentType" : 5126,
            "count" : 56,
            "max" : [
                77.50000762939453,
                -5.128206253051758,
                1.708029913061182e-06
            ],
            "min" : [
                62.50000762939453,
                -20.51282501220703,
                1.722547438021138e-08
            ],
            "type" : "VEC3"
        },
        {
            "bufferView" : 41,
            "componentType" : 5126,
            "count" : 56,
            "type" : "VEC3"
        },
        {
            "bufferView" : 42,
            "componentType" : 5126,
            "count" : 56,
            "type" : "VEC2"
        },
        {
            "bufferView" : 43,
            "componentType" : 5123,
            "count" : 72,
            "type" : "SCALAR"
        },
        {
            "bufferView" : 44,
            "componentType" : 5126,
            "count" : 409,
            "max" : [
                79.94740295410156,
                -1.4871795177459717,
                1.9676381270983256e-06
            ],
            "min" : [
                59.960548400878906,
                -20.51282501220703,
                -0.019999992102384567
            ],
            "type" : "VEC3"
        },
        {
            "bufferView" : 45,
            "componentType" : 5126,
            "count" : 409,
            "type" : "VEC3"
        },
        {
            "bufferView" : 46,
            "componentType" : 5126,
            "count" : 409,
            "type" : "VEC2"
        },
        {
            "bufferView" : 47,
            "componentType" : 5123,
            "count" : 903,
            "type" : "SCALAR"
        }
    ],
    "bufferViews" : [
        {
            "buffer" : 0,
            "byteLength" : 3528,
            "byteOffset" : 0
        },
        {
            "buffer" : 0,
            "byteLength" : 3528,
            "byteOffset" : 3528
        },
        {
            "buffer" : 0,
            "byteLength" : 2352,
            "byteOffset" : 7056
        },
        {
            "buffer" : 0,
            "byteLength" : 1236,
            "byteOffset" : 9408
        },
        {
            "buffer" : 0,
            "byteLength" : 6660,
            "byteOffset" : 10644
        },
        {
            "buffer" : 0,
            "byteLength" : 6660,
            "byteOffset" : 17304
        },
        {
            "buffer" : 0,
            "byteLength" : 4440,
            "byteOffset" : 23964
        },
        {
            "buffer" : 0,
            "byteLength" : 1884,
            "byteOffset" : 28404
        },
        {
            "buffer" : 0,
            "byteLength" : 4680,
            "byteOffset" : 30288
        },
        {
            "buffer" : 0,
            "byteLength" : 4680,
            "byteOffset" : 34968
        },
        {
            "buffer" : 0,
            "byteLength" : 3120,
            "byteOffset" : 39648
        },
        {
            "buffer" : 0,
            "byteLength" : 882,
            "byteOffset" : 42768
        },
        {
            "buffer" : 0,
            "byteLength" : 4044,
            "byteOffset" : 43652
        },
        {
            "buffer" : 0,
            "byteLength" : 4044,
            "byteOffset" : 47696
        },
        {
            "buffer" : 0,
            "byteLength" : 2696,
            "byteOffset" : 51740
        },
        {
            "buffer" : 0,
            "byteLength" : 966,
            "byteOffset" : 54436
        },
        {
            "buffer" : 0,
            "byteLength" : 672,
            "byteOffset" : 55404
        },
        {
            "buffer" : 0,
            "byteLength" : 672,
            "byteOffset" : 56076
        },
        {
            "buffer" : 0,
            "byteLength" : 448,
            "byteOffset" : 56748
        },
        {
            "buffer" : 0,
            "byteLength" : 144,
            "byteOffset" : 57196
        },
        {
            "buffer" : 0,
            "byteLength" : 4908,
            "byteOffset" : 57340
        },
        {
            "buffer" : 0,
            "byteLength" : 4908,
            "byteOffset" : 62248
        },
        {
            "buffer" : 0,
            "byteLength" : 3272,
            "byteOffset" : 67156
        },
        {
            "buffer" : 0,
            "byteLength" : 1806,
            "byteOffset" : 70428
        },
        {
            "buffer" : 0,
            "byteLength" : 3528,
            "byteOffset" : 72236
        },
        {
            "buffer" : 0,
            "byteLength" : 3528,
            "byteOffset" : 75764
        },
        {
            "buffer" : 0,
            "byteLength" : 2352,
            "byteOffset" : 79292
        },
        {
            "buffer" : 0,
            "byteLength" : 1236,
            "byteOffset" : 81644
        },
        {
            "buffer" : 0,
            "byteLength" : 6660,
            "byteOffset" : 82880
        },
        {
            "buffer" : 0,
            "byteLength" : 6660,
            "byteOffset" : 89540
        },
        {
            "buffer" : 0,
            "byteLength" : 4440,
            "byteOffset" : 96200
        },
        {
            "buffer" : 0,
            "byteLength" : 1884,
            "byteOffset" : 100640
        },
        {
            "buffer" : 0,
            "byteLength" : 4680,
            "byteOffset" : 102524
        },
        {
            "buffer" : 0,
            "byteLength" : 4680,
            "byteOffset" : 107204
        },
        {
            "buffer" : 0,
            "byteLength" : 3120,
            "byteOffset" : 111884
        },
        {
            "buffer" : 0,
            "byteLength" : 882,
            "byteOffset" : 115004
        },
        {
            "buffer" : 0,
            "byteLength" : 4044,
            "byteOffset" : 115888
        },
        {
            "buffer" : 0,
            "byteLength" : 4044,
            "byteOffset" : 119932
        },
        {
            "buffer" : 0,
            "byteLength" : 2696,
            "byteOffset" : 123976
        },
        {
            "buffer" : 0,
            "byteLength" : 966,
            "byteOffset" : 126672
        },
        {
            "buffer" : 0,
            "byteLength" : 672,
            "byteOffset" : 127640
        },
        {
            "buffer" : 0,
            "byteLength" : 672,
            "byteOffset" : 128312
        },
        {
            "buffer" : 0,
            "byteLength" : 448,
            "byteOffset" : 128984
        },
        {
            "buffer" : 0,
            "byteLength" : 144,
            "byteOffset" : 129432
        },
        {
            "buffer" : 0,
            "byteLength" : 4908,
            "byteOffset" : 129576
        },
        {
            "buffer" : 0,
            "byteLength" : 4908,
            "byteOffset" : 134484
        },
        {
            "buffer" : 0,
            "byteLength" : 3272,
            "byteOffset" : 139392
        },
        {
            "buffer" : 0,
            "byteLength" : 1806,
            "byteOffset" : 142664
        }
    ],
    "buffers" : [
        {
            "byteLength" : 144472,
            "uri" : "Section6.bin"
        }
    ]
}
