{
    "asset" : {
        "generator" : "Khronos Blender glTF 2.0 I/O",
        "version" : "2.0"
    },
    "scene" : 0,
    "scenes" : [
        {
            "name" : "Scene",
            "nodes" : [
                0
            ]
        }
    ],
    "nodes" : [
        {
            "mesh" : 0,
            "name" : "Section3",
            "rotation" : [
                0.7071068286895752,
                0,
                0,
                0.7071067094802856
            ],
            "scale" : [
                6.404210567474365,
                6.239999771118164,
                6.239999771118164
            ]
        }
    ],
    "materials" : [
        {
            "name" : "Material_2",
            "pbrMetallicRoughness" : {
                "baseColorFactor" : [
                    0.20966710150241852,
                    0.22199566662311554,
                    0.22759564220905304,
                    1
                ],
                "metallicFactor" : 0,
                "roughnessFactor" : 0.11385715007781982
            }
        },
        {
            "name" : "Material_0",
            "pbrMetallicRoughness" : {
                "baseColorTexture" : {
                    "index" : 0,
                    "texCoord" : 0
                },
                "metallicFactor" : 0,
                "roughnessFactor" : 0.33290475606918335
            }
        },
        {
            "name" : "Material_1",
            "normalTexture" : {
                "index" : 1,
                "texCoord" : 0
            },
            "pbrMetallicRoughness" : {
                "baseColorTexture" : {
                    "index" : 2,
                    "texCoord" : 0
                },
                "metallicFactor" : 0.07619045674800873,
                "roughnessFactor" : 0.5090952515602112
            }
        },
        {
            "name" : "Material_3",
            "normalTexture" : {
                "index" : 3,
                "texCoord" : 0
            },
            "pbrMetallicRoughness" : {
                "baseColorTexture" : {
                    "index" : 4,
                    "texCoord" : 0
                },
                "metallicFactor" : 0.09047621488571167,
                "roughnessFactor" : 0.27619099617004395
            }
        },
        {
            "name" : "Material_4",
            "normalTexture" : {
                "index" : 5,
                "texCoord" : 0
            },
            "pbrMetallicRoughness" : {
                "baseColorFactor" : [
                    0.20561954379081726,
                    0.20561954379081726,
                    0.20561954379081726,
                    1
                ],
                "metallicFactor" : 1,
                "roughnessFactor" : 0.2281428575515747
            }
        },
        {
            "name" : "Material_5",
            "pbrMetallicRoughness" : {
                "baseColorTexture" : {
                    "index" : 6,
                    "texCoord" : 0
                },
                "metallicFactor" : 0.09047621488571167,
                "roughnessFactor" : 0.27619099617004395
            }
        },
        {
            "emissiveFactor" : [
                1,
                0,
                0.000998774659819901
            ],
            "name" : "Emit",
            "pbrMetallicRoughness" : {
                "baseColorFactor" : [
                    0.800000011920929,
                    0.800000011920929,
                    0.800000011920929,
                    1
                ],
                "metallicFactor" : 0,
                "roughnessFactor" : 0.5
            }
        }
    ],
    "meshes" : [
        {
            "name" : "Mesh_2.010",
            "primitives" : [
                {
                    "attributes" : {
                        "POSITION" : 0,
                        "NORMAL" : 1,
                        "TEXCOORD_0" : 2
                    },
                    "indices" : 3,
                    "material" : 0
                },
                {
                    "attributes" : {
                        "POSITION" : 4,
                        "NORMAL" : 5,
                        "TEXCOORD_0" : 6
                    },
                    "indices" : 7,
                    "material" : 1
                },
                {
                    "attributes" : {
                        "POSITION" : 8,
                        "NORMAL" : 9,
                        "TEXCOORD_0" : 10
                    },
                    "indices" : 11,
                    "material" : 2
                },
                {
                    "attributes" : {
                        "POSITION" : 12,
                        "NORMAL" : 13,
                        "TEXCOORD_0" : 14
                    },
                    "indices" : 15,
                    "material" : 3
                },
                {
                    "attributes" : {
                        "POSITION" : 16,
                        "NORMAL" : 17,
                        "TEXCOORD_0" : 18
                    },
                    "indices" : 19,
                    "material" : 4
                },
                {
                    "attributes" : {
                        "POSITION" : 20,
                        "NORMAL" : 21,
                        "TEXCOORD_0" : 22
                    },
                    "indices" : 23,
                    "material" : 5
                },
                {
                    "attributes" : {
                        "POSITION" : 24,
                        "NORMAL" : 25,
                        "TEXCOORD_0" : 26
                    },
                    "indices" : 27,
                    "material" : 6
                }
            ]
        }
    ],
    "textures" : [
        {
            "source" : 0
        },
        {
            "source" : 1
        },
        {
            "source" : 2
        },
        {
            "source" : 3
        },
        {
            "source" : 4
        },
        {
            "source" : 5
        },
        {
            "source" : 6
        }
    ],
    "images" : [
        {
            "mimeType" : "image/png",
            "name" : "concrete_wallpanelholes_2k_d.png",
            "uri" : "concrete_wallpanelholes_2k_d.png"
        },
        {
            "mimeType" : "image/jpeg",
            "name" : "MetalSteelPlates_normal.jpg",
            "uri" : "MetalSteelPlates_normal.jpg"
        },
        {
            "mimeType" : "image/jpeg",
            "name" : "RustyAnvilIron_basecolor.jpg",
            "uri" : "RustyAnvilIron_basecolor.jpg"
        },
        {
            "mimeType" : "image/png",
            "name" : "Metal_SciFiCompartmentPanelsPaint_1k_n.png",
            "uri" : "Metal_SciFiCompartmentPanelsPaint_1k_n.png"
        },
        {
            "mimeType" : "image/png",
            "name" : "Concrete_TinyCracks_512_Diffuse.png",
            "uri" : "Concrete_TinyCracks_512_Diffuse.png"
        },
        {
            "mimeType" : "image/png",
            "name" : "Metal_ReinforcedWallPanelsWhiteGold_2k_n.tga",
            "uri" : "Metal_ReinforcedWallPanelsWhiteGold_2k_n.png"
        },
        {
            "mimeType" : "image/png",
            "name" : "Concrete_TinyCracks_512_Diffuse.png",
            "uri" : "Concrete_TinyCracks_512_Diffuse.png"
        }
    ],
    "accessors" : [
        {
            "bufferView" : 0,
            "componentType" : 5126,
            "count" : 266,
            "max" : [
                79.79999542236328,
                -38.461544036865234,
                -0.5720300078392029
            ],
            "min" : [
                62.50000762939453,
                -40.93353271484375,
                -3.7720301151275635
            ],
            "type" : "VEC3"
        },
        {
            "bufferView" : 1,
            "componentType" : 5126,
            "count" : 266,
            "type" : "VEC3"
        },
        {
            "bufferView" : 2,
            "componentType" : 5126,
            "count" : 266,
            "type" : "VEC2"
        },
        {
            "bufferView" : 3,
            "componentType" : 5123,
            "count" : 480,
            "type" : "SCALAR"
        },
        {
            "bufferView" : 4,
            "componentType" : 5126,
            "count" : 521,
            "max" : [
                77.50000762939453,
                -20.51282501220703,
                4.03469812226831e-06
            ],
            "min" : [
                59.960548400878906,
                -33.333343505859375,
                -62.50000762939453
            ],
            "type" : "VEC3"
        },
        {
            "bufferView" : 5,
            "componentType" : 5126,
            "count" : 521,
            "type" : "VEC3"
        },
        {
            "bufferView" : 6,
            "componentType" : 5126,
            "count" : 521,
            "type" : "VEC2"
        },
        {
            "bufferView" : 7,
            "componentType" : 5123,
            "count" : 1179,
            "type" : "SCALAR"
        },
        {
            "bufferView" : 8,
            "componentType" : 5126,
            "count" : 715,
            "max" : [
                79.94691467285156,
                -35.89744186401367,
                1.2936327209445153e-07
            ],
            "min" : [
                62.50000762939453,
                -38.512813568115234,
                -7.500000953674316
            ],
            "type" : "VEC3"
        },
        {
            "bufferView" : 9,
            "componentType" : 5126,
            "count" : 715,
            "type" : "VEC3"
        },
        {
            "bufferView" : 10,
            "componentType" : 5126,
            "count" : 715,
            "type" : "VEC2"
        },
        {
            "bufferView" : 11,
            "componentType" : 5123,
            "count" : 1176,
            "type" : "SCALAR"
        },
        {
            "bufferView" : 12,
            "componentType" : 5126,
            "count" : 443,
            "max" : [
                79.94740295410156,
                -20.5128173828125,
                1.3780400820451177e-07
            ],
            "min" : [
                59.960548400878906,
                -42.10255813598633,
                -0.019999928772449493
            ],
            "type" : "VEC3"
        },
        {
            "bufferView" : 13,
            "componentType" : 5126,
            "count" : 443,
            "type" : "VEC3"
        },
        {
            "bufferView" : 14,
            "componentType" : 5126,
            "count" : 443,
            "type" : "VEC2"
        },
        {
            "bufferView" : 15,
            "componentType" : 5123,
            "count" : 501,
            "type" : "SCALAR"
        },
        {
            "bufferView" : 16,
            "componentType" : 5126,
            "count" : 364,
            "max" : [
                79.94740295410156,
                -20.512815475463867,
                1.4641676671089954e-07
            ],
            "min" : [
                59.960548400878906,
                -43.589752197265625,
                6.890187620456345e-08
            ],
            "type" : "VEC3"
        },
        {
            "bufferView" : 17,
            "componentType" : 5126,
            "count" : 364,
            "type" : "VEC3"
        },
        {
            "bufferView" : 18,
            "componentType" : 5126,
            "count" : 364,
            "type" : "VEC2"
        },
        {
            "bufferView" : 19,
            "componentType" : 5123,
            "count" : 513,
            "type" : "SCALAR"
        },
        {
            "bufferView" : 20,
            "componentType" : 5126,
            "count" : 10,
            "max" : [
                77.50000762939453,
                -20.51282501220703,
                1.7166426005132962e-06
            ],
            "min" : [
                70.00000762939453,
                -23.076927185058594,
                6.890190462627288e-08
            ],
            "type" : "VEC3"
        },
        {
            "bufferView" : 21,
            "componentType" : 5126,
            "count" : 10,
            "type" : "VEC3"
        },
        {
            "bufferView" : 22,
            "componentType" : 5126,
            "count" : 10,
            "type" : "VEC2"
        },
        {
            "bufferView" : 23,
            "componentType" : 5123,
            "count" : 18,
            "type" : "SCALAR"
        },
        {
            "bufferView" : 24,
            "componentType" : 5126,
            "count" : 430,
            "max" : [
                79.94740295410156,
                -20.5128173828125,
                4.03469812226831e-06
            ],
            "min" : [
                59.960548400878906,
                -42.10255813598633,
                -0.019999928772449493
            ],
            "type" : "VEC3"
        },
        {
            "bufferView" : 25,
            "componentType" : 5126,
            "count" : 430,
            "type" : "VEC3"
        },
        {
            "bufferView" : 26,
            "componentType" : 5126,
            "count" : 430,
            "type" : "VEC2"
        },
        {
            "bufferView" : 27,
            "componentType" : 5123,
            "count" : 918,
            "type" : "SCALAR"
        }
    ],
    "bufferViews" : [
        {
            "buffer" : 0,
            "byteLength" : 3192,
            "byteOffset" : 0
        },
        {
            "buffer" : 0,
            "byteLength" : 3192,
            "byteOffset" : 3192
        },
        {
            "buffer" : 0,
            "byteLength" : 2128,
            "byteOffset" : 6384
        },
        {
            "buffer" : 0,
            "byteLength" : 960,
            "byteOffset" : 8512
        },
        {
            "buffer" : 0,
            "byteLength" : 6252,
            "byteOffset" : 9472
        },
        {
            "buffer" : 0,
            "byteLength" : 6252,
            "byteOffset" : 15724
        },
        {
            "buffer" : 0,
            "byteLength" : 4168,
            "byteOffset" : 21976
        },
        {
            "buffer" : 0,
            "byteLength" : 2358,
            "byteOffset" : 26144
        },
        {
            "buffer" : 0,
            "byteLength" : 8580,
            "byteOffset" : 28504
        },
        {
            "buffer" : 0,
            "byteLength" : 8580,
            "byteOffset" : 37084
        },
        {
            "buffer" : 0,
            "byteLength" : 5720,
            "byteOffset" : 45664
        },
        {
            "buffer" : 0,
            "byteLength" : 2352,
            "byteOffset" : 51384
        },
        {
            "buffer" : 0,
            "byteLength" : 5316,
            "byteOffset" : 53736
        },
        {
            "buffer" : 0,
            "byteLength" : 5316,
            "byteOffset" : 59052
        },
        {
            "buffer" : 0,
            "byteLength" : 3544,
            "byteOffset" : 64368
        },
        {
            "buffer" : 0,
            "byteLength" : 1002,
            "byteOffset" : 67912
        },
        {
            "buffer" : 0,
            "byteLength" : 4368,
            "byteOffset" : 68916
        },
        {
            "buffer" : 0,
            "byteLength" : 4368,
            "byteOffset" : 73284
        },
        {
            "buffer" : 0,
            "byteLength" : 2912,
            "byteOffset" : 77652
        },
        {
            "buffer" : 0,
            "byteLength" : 1026,
            "byteOffset" : 80564
        },
        {
            "buffer" : 0,
            "byteLength" : 120,
            "byteOffset" : 81592
        },
        {
            "buffer" : 0,
            "byteLength" : 120,
            "byteOffset" : 81712
        },
        {
            "buffer" : 0,
            "byteLength" : 80,
            "byteOffset" : 81832
        },
        {
            "buffer" : 0,
            "byteLength" : 36,
            "byteOffset" : 81912
        },
        {
            "buffer" : 0,
            "byteLength" : 5160,
            "byteOffset" : 81948
        },
        {
            "buffer" : 0,
            "byteLength" : 5160,
            "byteOffset" : 87108
        },
        {
            "buffer" : 0,
            "byteLength" : 3440,
            "byteOffset" : 92268
        },
        {
            "buffer" : 0,
            "byteLength" : 1836,
            "byteOffset" : 95708
        }
    ],
    "buffers" : [
        {
            "byteLength" : 97544,
            "uri" : "Section3.bin"
        }
    ]
}
