{
    "asset" : {
        "generator" : "Khronos Blender glTF 2.0 I/O",
        "version" : "2.0"
    },
    "scene" : 0,
    "scenes" : [
        {
            "name" : "Scene",
            "nodes" : [
                0,
                1
            ]
        }
    ],
    "nodes" : [
        {
            "mesh" : 0,
            "name" : "Section5",
            "rotation" : [
                0.7071068286895752,
                0,
                0,
                0.7071067094802856
            ],
            "scale" : [
                6.404210567474365,
                6.239999771118164,
                6.239999771118164
            ]
        },
        {
            "mesh" : 1,
            "name" : "Section5_collider",
            "rotation" : [
                0.7071068286895752,
                0,
                0,
                0.7071067094802856
            ],
            "scale" : [
                6.404210567474365,
                6.239999771118164,
                6.239999771118164
            ]
        }
    ],
    "materials" : [
        {
            "name" : "Material_0",
            "pbrMetallicRoughness" : {
                "baseColorTexture" : {
                    "index" : 0,
                    "texCoord" : 0
                },
                "metallicFactor" : 0,
                "roughnessFactor" : 0.33290475606918335
            }
        },
        {
            "name" : "Material_1",
            "normalTexture" : {
                "index" : 1,
                "texCoord" : 0
            },
            "pbrMetallicRoughness" : {
                "baseColorTexture" : {
                    "index" : 2,
                    "texCoord" : 0
                },
                "metallicFactor" : 0.07619045674800873,
                "roughnessFactor" : 0.5090952515602112
            }
        },
        {
            "name" : "Material_3",
            "normalTexture" : {
                "index" : 3,
                "texCoord" : 0
            },
            "pbrMetallicRoughness" : {
                "baseColorTexture" : {
                    "index" : 4,
                    "texCoord" : 0
                },
                "metallicFactor" : 0.09047621488571167,
                "roughnessFactor" : 0.27619099617004395
            }
        },
        {
            "name" : "Material_4",
            "normalTexture" : {
                "index" : 5,
                "texCoord" : 0
            },
            "pbrMetallicRoughness" : {
                "baseColorFactor" : [
                    0.20561954379081726,
                    0.20561954379081726,
                    0.20561954379081726,
                    1
                ],
                "metallicFactor" : 1,
                "roughnessFactor" : 0.2281428575515747
            }
        },
        {
            "emissiveFactor" : [
                1,
                0,
                0.000998774659819901
            ],
            "name" : "Emit",
            "pbrMetallicRoughness" : {
                "baseColorFactor" : [
                    0.800000011920929,
                    0.800000011920929,
                    0.800000011920929,
                    1
                ],
                "metallicFactor" : 0,
                "roughnessFactor" : 0.5
            }
        }
    ],
    "meshes" : [
        {
            "name" : "Mesh_2.020",
            "primitives" : [
                {
                    "attributes" : {
                        "POSITION" : 0,
                        "NORMAL" : 1,
                        "TEXCOORD_0" : 2
                    },
                    "indices" : 3,
                    "material" : 0
                },
                {
                    "attributes" : {
                        "POSITION" : 4,
                        "NORMAL" : 5,
                        "TEXCOORD_0" : 6
                    },
                    "indices" : 7,
                    "material" : 1
                },
                {
                    "attributes" : {
                        "POSITION" : 8,
                        "NORMAL" : 9,
                        "TEXCOORD_0" : 10
                    },
                    "indices" : 11,
                    "material" : 2
                },
                {
                    "attributes" : {
                        "POSITION" : 12,
                        "NORMAL" : 13,
                        "TEXCOORD_0" : 14
                    },
                    "indices" : 15,
                    "material" : 3
                },
                {
                    "attributes" : {
                        "POSITION" : 16,
                        "NORMAL" : 17,
                        "TEXCOORD_0" : 18
                    },
                    "indices" : 19,
                    "material" : 4
                }
            ]
        },
        {
            "name" : "Mesh_2.020",
            "primitives" : [
                {
                    "attributes" : {
                        "POSITION" : 20,
                        "NORMAL" : 21,
                        "TEXCOORD_0" : 22
                    },
                    "indices" : 23,
                    "material" : 0
                },
                {
                    "attributes" : {
                        "POSITION" : 24,
                        "NORMAL" : 25,
                        "TEXCOORD_0" : 26
                    },
                    "indices" : 27,
                    "material" : 1
                },
                {
                    "attributes" : {
                        "POSITION" : 28,
                        "NORMAL" : 29,
                        "TEXCOORD_0" : 30
                    },
                    "indices" : 31,
                    "material" : 2
                },
                {
                    "attributes" : {
                        "POSITION" : 32,
                        "NORMAL" : 33,
                        "TEXCOORD_0" : 34
                    },
                    "indices" : 35,
                    "material" : 3
                },
                {
                    "attributes" : {
                        "POSITION" : 36,
                        "NORMAL" : 37,
                        "TEXCOORD_0" : 38
                    },
                    "indices" : 39,
                    "material" : 4
                }
            ]
        }
    ],
    "textures" : [
        {
            "source" : 0
        },
        {
            "source" : 1
        },
        {
            "source" : 2
        },
        {
            "source" : 3
        },
        {
            "source" : 4
        },
        {
            "source" : 5
        }
    ],
    "images" : [
        {
            "mimeType" : "image/png",
            "name" : "concrete_wallpanelholes_2k_d.png",
            "uri" : "concrete_wallpanelholes_2k_d.png"
        },
        {
            "mimeType" : "image/jpeg",
            "name" : "MetalSteelPlates_normal.jpg",
            "uri" : "MetalSteelPlates_normal.jpg"
        },
        {
            "mimeType" : "image/jpeg",
            "name" : "RustyAnvilIron_basecolor.jpg",
            "uri" : "RustyAnvilIron_basecolor.jpg"
        },
        {
            "mimeType" : "image/png",
            "name" : "Metal_SciFiCompartmentPanelsPaint_1k_n.png",
            "uri" : "Metal_SciFiCompartmentPanelsPaint_1k_n.png"
        },
        {
            "mimeType" : "image/png",
            "name" : "Concrete_TinyCracks_512_Diffuse.png",
            "uri" : "Concrete_TinyCracks_512_Diffuse.png"
        },
        {
            "mimeType" : "image/png",
            "name" : "Metal_ReinforcedWallPanelsWhiteGold_2k_n.tga",
            "uri" : "Metal_ReinforcedWallPanelsWhiteGold_2k_n.png"
        }
    ],
    "accessors" : [
        {
            "bufferView" : 0,
            "componentType" : 5126,
            "count" : 205,
            "max" : [
                90.00000762939453,
                -7.6923089027404785,
                6.890194725883703e-08
            ],
            "min" : [
                79.94691467285156,
                -20.51282501220703,
                -10.000000953674316
            ],
            "type" : "VEC3"
        },
        {
            "bufferView" : 1,
            "componentType" : 5126,
            "count" : 205,
            "type" : "VEC3"
        },
        {
            "bufferView" : 2,
            "componentType" : 5126,
            "count" : 205,
            "type" : "VEC2"
        },
        {
            "bufferView" : 3,
            "componentType" : 5123,
            "count" : 468,
            "type" : "SCALAR"
        },
        {
            "bufferView" : 4,
            "componentType" : 5126,
            "count" : 1224,
            "max" : [
                95.04999542236328,
                -2.512821674346924,
                6.890201120768324e-08
            ],
            "min" : [
                79.94691467285156,
                -20.51282501220703,
                -7.500000953674316
            ],
            "type" : "VEC3"
        },
        {
            "bufferView" : 5,
            "componentType" : 5126,
            "count" : 1224,
            "type" : "VEC3"
        },
        {
            "bufferView" : 6,
            "componentType" : 5126,
            "count" : 1224,
            "type" : "VEC2"
        },
        {
            "bufferView" : 7,
            "componentType" : 5123,
            "count" : 1950,
            "type" : "SCALAR"
        },
        {
            "bufferView" : 8,
            "componentType" : 5126,
            "count" : 336,
            "max" : [
                96.05000305175781,
                -1.4871795177459717,
                -0.019999928772449493
            ],
            "min" : [
                79.94691467285156,
                -20.51282501220703,
                -0.019999992102384567
            ],
            "type" : "VEC3"
        },
        {
            "bufferView" : 9,
            "componentType" : 5126,
            "count" : 336,
            "type" : "VEC3"
        },
        {
            "bufferView" : 10,
            "componentType" : 5126,
            "count" : 336,
            "type" : "VEC2"
        },
        {
            "bufferView" : 11,
            "componentType" : 5123,
            "count" : 381,
            "type" : "SCALAR"
        },
        {
            "bufferView" : 12,
            "componentType" : 5126,
            "count" : 277,
            "max" : [
                97.4359130859375,
                3.5982574884095564e-13,
                6.890190462627288e-08
            ],
            "min" : [
                79.94691467285156,
                -20.51282501220703,
                -1.115769938464864e-13
            ],
            "type" : "VEC3"
        },
        {
            "bufferView" : 13,
            "componentType" : 5126,
            "count" : 277,
            "type" : "VEC3"
        },
        {
            "bufferView" : 14,
            "componentType" : 5126,
            "count" : 277,
            "type" : "VEC2"
        },
        {
            "bufferView" : 15,
            "componentType" : 5123,
            "count" : 417,
            "type" : "SCALAR"
        },
        {
            "bufferView" : 16,
            "componentType" : 5126,
            "count" : 357,
            "max" : [
                96.05000305175781,
                -1.4871795177459717,
                6.890201120768324e-08
            ],
            "min" : [
                79.94691467285156,
                -20.51282501220703,
                -0.019999992102384567
            ],
            "type" : "VEC3"
        },
        {
            "bufferView" : 17,
            "componentType" : 5126,
            "count" : 357,
            "type" : "VEC3"
        },
        {
            "bufferView" : 18,
            "componentType" : 5126,
            "count" : 357,
            "type" : "VEC2"
        },
        {
            "bufferView" : 19,
            "componentType" : 5123,
            "count" : 789,
            "type" : "SCALAR"
        },
        {
            "bufferView" : 20,
            "componentType" : 5126,
            "count" : 205,
            "max" : [
                90.00000762939453,
                -7.6923089027404785,
                6.890194725883703e-08
            ],
            "min" : [
                79.94691467285156,
                -20.51282501220703,
                -10.000000953674316
            ],
            "type" : "VEC3"
        },
        {
            "bufferView" : 21,
            "componentType" : 5126,
            "count" : 205,
            "type" : "VEC3"
        },
        {
            "bufferView" : 22,
            "componentType" : 5126,
            "count" : 205,
            "type" : "VEC2"
        },
        {
            "bufferView" : 23,
            "componentType" : 5123,
            "count" : 468,
            "type" : "SCALAR"
        },
        {
            "bufferView" : 24,
            "componentType" : 5126,
            "count" : 1224,
            "max" : [
                95.04999542236328,
                -2.512821674346924,
                6.890201120768324e-08
            ],
            "min" : [
                79.94691467285156,
                -20.51282501220703,
                -7.500000953674316
            ],
            "type" : "VEC3"
        },
        {
            "bufferView" : 25,
            "componentType" : 5126,
            "count" : 1224,
            "type" : "VEC3"
        },
        {
            "bufferView" : 26,
            "componentType" : 5126,
            "count" : 1224,
            "type" : "VEC2"
        },
        {
            "bufferView" : 27,
            "componentType" : 5123,
            "count" : 1950,
            "type" : "SCALAR"
        },
        {
            "bufferView" : 28,
            "componentType" : 5126,
            "count" : 336,
            "max" : [
                96.05000305175781,
                -1.4871795177459717,
                -0.019999928772449493
            ],
            "min" : [
                79.94691467285156,
                -20.51282501220703,
                -0.019999992102384567
            ],
            "type" : "VEC3"
        },
        {
            "bufferView" : 29,
            "componentType" : 5126,
            "count" : 336,
            "type" : "VEC3"
        },
        {
            "bufferView" : 30,
            "componentType" : 5126,
            "count" : 336,
            "type" : "VEC2"
        },
        {
            "bufferView" : 31,
            "componentType" : 5123,
            "count" : 381,
            "type" : "SCALAR"
        },
        {
            "bufferView" : 32,
            "componentType" : 5126,
            "count" : 277,
            "max" : [
                97.4359130859375,
                3.5982574884095564e-13,
                6.890190462627288e-08
            ],
            "min" : [
                79.94691467285156,
                -20.51282501220703,
                -1.115769938464864e-13
            ],
            "type" : "VEC3"
        },
        {
            "bufferView" : 33,
            "componentType" : 5126,
            "count" : 277,
            "type" : "VEC3"
        },
        {
            "bufferView" : 34,
            "componentType" : 5126,
            "count" : 277,
            "type" : "VEC2"
        },
        {
            "bufferView" : 35,
            "componentType" : 5123,
            "count" : 417,
            "type" : "SCALAR"
        },
        {
            "bufferView" : 36,
            "componentType" : 5126,
            "count" : 357,
            "max" : [
                96.05000305175781,
                -1.4871795177459717,
                6.890201120768324e-08
            ],
            "min" : [
                79.94691467285156,
                -20.51282501220703,
                -0.019999992102384567
            ],
            "type" : "VEC3"
        },
        {
            "bufferView" : 37,
            "componentType" : 5126,
            "count" : 357,
            "type" : "VEC3"
        },
        {
            "bufferView" : 38,
            "componentType" : 5126,
            "count" : 357,
            "type" : "VEC2"
        },
        {
            "bufferView" : 39,
            "componentType" : 5123,
            "count" : 789,
            "type" : "SCALAR"
        }
    ],
    "bufferViews" : [
        {
            "buffer" : 0,
            "byteLength" : 2460,
            "byteOffset" : 0
        },
        {
            "buffer" : 0,
            "byteLength" : 2460,
            "byteOffset" : 2460
        },
        {
            "buffer" : 0,
            "byteLength" : 1640,
            "byteOffset" : 4920
        },
        {
            "buffer" : 0,
            "byteLength" : 936,
            "byteOffset" : 6560
        },
        {
            "buffer" : 0,
            "byteLength" : 14688,
            "byteOffset" : 7496
        },
        {
            "buffer" : 0,
            "byteLength" : 14688,
            "byteOffset" : 22184
        },
        {
            "buffer" : 0,
            "byteLength" : 9792,
            "byteOffset" : 36872
        },
        {
            "buffer" : 0,
            "byteLength" : 3900,
            "byteOffset" : 46664
        },
        {
            "buffer" : 0,
            "byteLength" : 4032,
            "byteOffset" : 50564
        },
        {
            "buffer" : 0,
            "byteLength" : 4032,
            "byteOffset" : 54596
        },
        {
            "buffer" : 0,
            "byteLength" : 2688,
            "byteOffset" : 58628
        },
        {
            "buffer" : 0,
            "byteLength" : 762,
            "byteOffset" : 61316
        },
        {
            "buffer" : 0,
            "byteLength" : 3324,
            "byteOffset" : 62080
        },
        {
            "buffer" : 0,
            "byteLength" : 3324,
            "byteOffset" : 65404
        },
        {
            "buffer" : 0,
            "byteLength" : 2216,
            "byteOffset" : 68728
        },
        {
            "buffer" : 0,
            "byteLength" : 834,
            "byteOffset" : 70944
        },
        {
            "buffer" : 0,
            "byteLength" : 4284,
            "byteOffset" : 71780
        },
        {
            "buffer" : 0,
            "byteLength" : 4284,
            "byteOffset" : 76064
        },
        {
            "buffer" : 0,
            "byteLength" : 2856,
            "byteOffset" : 80348
        },
        {
            "buffer" : 0,
            "byteLength" : 1578,
            "byteOffset" : 83204
        },
        {
            "buffer" : 0,
            "byteLength" : 2460,
            "byteOffset" : 84784
        },
        {
            "buffer" : 0,
            "byteLength" : 2460,
            "byteOffset" : 87244
        },
        {
            "buffer" : 0,
            "byteLength" : 1640,
            "byteOffset" : 89704
        },
        {
            "buffer" : 0,
            "byteLength" : 936,
            "byteOffset" : 91344
        },
        {
            "buffer" : 0,
            "byteLength" : 14688,
            "byteOffset" : 92280
        },
        {
            "buffer" : 0,
            "byteLength" : 14688,
            "byteOffset" : 106968
        },
        {
            "buffer" : 0,
            "byteLength" : 9792,
            "byteOffset" : 121656
        },
        {
            "buffer" : 0,
            "byteLength" : 3900,
            "byteOffset" : 131448
        },
        {
            "buffer" : 0,
            "byteLength" : 4032,
            "byteOffset" : 135348
        },
        {
            "buffer" : 0,
            "byteLength" : 4032,
            "byteOffset" : 139380
        },
        {
            "buffer" : 0,
            "byteLength" : 2688,
            "byteOffset" : 143412
        },
        {
            "buffer" : 0,
            "byteLength" : 762,
            "byteOffset" : 146100
        },
        {
            "buffer" : 0,
            "byteLength" : 3324,
            "byteOffset" : 146864
        },
        {
            "buffer" : 0,
            "byteLength" : 3324,
            "byteOffset" : 150188
        },
        {
            "buffer" : 0,
            "byteLength" : 2216,
            "byteOffset" : 153512
        },
        {
            "buffer" : 0,
            "byteLength" : 834,
            "byteOffset" : 155728
        },
        {
            "buffer" : 0,
            "byteLength" : 4284,
            "byteOffset" : 156564
        },
        {
            "buffer" : 0,
            "byteLength" : 4284,
            "byteOffset" : 160848
        },
        {
            "buffer" : 0,
            "byteLength" : 2856,
            "byteOffset" : 165132
        },
        {
            "buffer" : 0,
            "byteLength" : 1578,
            "byteOffset" : 167988
        }
    ],
    "buffers" : [
        {
            "byteLength" : 169568,
            "uri" : "Section5.bin"
        }
    ]
}
