{
    "asset" : {
        "generator" : "Khronos Blender glTF 2.0 I/O",
        "version" : "2.0"
    },
    "scene" : 0,
    "scenes" : [
        {
            "name" : "Scene",
            "nodes" : [
                0,
                1
            ]
        }
    ],
    "nodes" : [
        {
            "mesh" : 0,
            "name" : "Section7",
            "rotation" : [
                0.7071068286895752,
                0,
                0,
                0.7071067094802856
            ],
            "scale" : [
                6.404210567474365,
                6.239999771118164,
                6.239999771118164
            ]
        },
        {
            "mesh" : 1,
            "name" : "Section7_collider",
            "rotation" : [
                0.7071068286895752,
                0,
                0,
                0.7071067094802856
            ],
            "scale" : [
                6.404210567474365,
                6.239999771118164,
                6.239999771118164
            ]
        }
    ],
    "materials" : [
        {
            "name" : "Material_0",
            "pbrMetallicRoughness" : {
                "baseColorTexture" : {
                    "index" : 0,
                    "texCoord" : 0
                },
                "metallicFactor" : 0,
                "roughnessFactor" : 0.33290475606918335
            }
        },
        {
            "name" : "Material_1",
            "normalTexture" : {
                "index" : 1,
                "texCoord" : 0
            },
            "pbrMetallicRoughness" : {
                "baseColorTexture" : {
                    "index" : 2,
                    "texCoord" : 0
                },
                "metallicFactor" : 0.07619045674800873,
                "roughnessFactor" : 0.5090952515602112
            }
        },
        {
            "name" : "Material_3",
            "normalTexture" : {
                "index" : 3,
                "texCoord" : 0
            },
            "pbrMetallicRoughness" : {
                "baseColorTexture" : {
                    "index" : 4,
                    "texCoord" : 0
                },
                "metallicFactor" : 0.09047621488571167,
                "roughnessFactor" : 0.27619099617004395
            }
        },
        {
            "name" : "Material_4",
            "normalTexture" : {
                "index" : 5,
                "texCoord" : 0
            },
            "pbrMetallicRoughness" : {
                "baseColorFactor" : [
                    0.20561954379081726,
                    0.20561954379081726,
                    0.20561954379081726,
                    1
                ],
                "metallicFactor" : 1,
                "roughnessFactor" : 0.2281428575515747
            }
        },
        {
            "emissiveFactor" : [
                1,
                0,
                0.000998774659819901
            ],
            "name" : "Emit",
            "pbrMetallicRoughness" : {
                "baseColorFactor" : [
                    0.800000011920929,
                    0.800000011920929,
                    0.800000011920929,
                    1
                ],
                "metallicFactor" : 0,
                "roughnessFactor" : 0.5
            }
        }
    ],
    "meshes" : [
        {
            "name" : "Mesh_2.020",
            "primitives" : [
                {
                    "attributes" : {
                        "POSITION" : 0,
                        "NORMAL" : 1,
                        "TEXCOORD_0" : 2
                    },
                    "indices" : 3,
                    "material" : 0
                },
                {
                    "attributes" : {
                        "POSITION" : 4,
                        "NORMAL" : 5,
                        "TEXCOORD_0" : 6
                    },
                    "indices" : 7,
                    "material" : 1
                },
                {
                    "attributes" : {
                        "POSITION" : 8,
                        "NORMAL" : 9,
                        "TEXCOORD_0" : 10
                    },
                    "indices" : 11,
                    "material" : 2
                },
                {
                    "attributes" : {
                        "POSITION" : 12,
                        "NORMAL" : 13,
                        "TEXCOORD_0" : 14
                    },
                    "indices" : 15,
                    "material" : 3
                },
                {
                    "attributes" : {
                        "POSITION" : 16,
                        "NORMAL" : 17,
                        "TEXCOORD_0" : 18
                    },
                    "indices" : 19,
                    "material" : 4
                }
            ]
        },
        {
            "name" : "Mesh_2.020",
            "primitives" : [
                {
                    "attributes" : {
                        "POSITION" : 20,
                        "NORMAL" : 21,
                        "TEXCOORD_0" : 22
                    },
                    "indices" : 23,
                    "material" : 0
                },
                {
                    "attributes" : {
                        "POSITION" : 24,
                        "NORMAL" : 25,
                        "TEXCOORD_0" : 26
                    },
                    "indices" : 27,
                    "material" : 1
                },
                {
                    "attributes" : {
                        "POSITION" : 28,
                        "NORMAL" : 29,
                        "TEXCOORD_0" : 30
                    },
                    "indices" : 31,
                    "material" : 2
                },
                {
                    "attributes" : {
                        "POSITION" : 32,
                        "NORMAL" : 33,
                        "TEXCOORD_0" : 34
                    },
                    "indices" : 35,
                    "material" : 3
                },
                {
                    "attributes" : {
                        "POSITION" : 36,
                        "NORMAL" : 37,
                        "TEXCOORD_0" : 38
                    },
                    "indices" : 39,
                    "material" : 4
                }
            ]
        }
    ],
    "textures" : [
        {
            "source" : 0
        },
        {
            "source" : 1
        },
        {
            "source" : 2
        },
        {
            "source" : 3
        },
        {
            "source" : 4
        },
        {
            "source" : 5
        }
    ],
    "images" : [
        {
            "mimeType" : "image/png",
            "name" : "concrete_wallpanelholes_2k_d.png",
            "uri" : "concrete_wallpanelholes_2k_d.png"
        },
        {
            "mimeType" : "image/jpeg",
            "name" : "MetalSteelPlates_normal.jpg",
            "uri" : "MetalSteelPlates_normal.jpg"
        },
        {
            "mimeType" : "image/jpeg",
            "name" : "RustyAnvilIron_basecolor.jpg",
            "uri" : "RustyAnvilIron_basecolor.jpg"
        },
        {
            "mimeType" : "image/png",
            "name" : "Metal_SciFiCompartmentPanelsPaint_1k_n.png",
            "uri" : "Metal_SciFiCompartmentPanelsPaint_1k_n.png"
        },
        {
            "mimeType" : "image/png",
            "name" : "Concrete_TinyCracks_512_Diffuse.png",
            "uri" : "Concrete_TinyCracks_512_Diffuse.png"
        },
        {
            "mimeType" : "image/png",
            "name" : "Metal_ReinforcedWallPanelsWhiteGold_2k_n.tga",
            "uri" : "Metal_ReinforcedWallPanelsWhiteGold_2k_n.png"
        }
    ],
    "accessors" : [
        {
            "bufferView" : 0,
            "componentType" : 5126,
            "count" : 655,
            "max" : [
                59.960968017578125,
                -5.128206253051758,
                6.890189752084552e-08
            ],
            "min" : [
                39.97345733642578,
                -20.51282501220703,
                -62.95001983642578
            ],
            "type" : "VEC3"
        },
        {
            "bufferView" : 1,
            "componentType" : 5126,
            "count" : 655,
            "type" : "VEC3"
        },
        {
            "bufferView" : 2,
            "componentType" : 5126,
            "count" : 655,
            "type" : "VEC2"
        },
        {
            "bufferView" : 3,
            "componentType" : 5123,
            "count" : 1524,
            "type" : "SCALAR"
        },
        {
            "bufferView" : 4,
            "componentType" : 5126,
            "count" : 768,
            "max" : [
                59.960968017578125,
                -2.512821674346924,
                1.722547438021138e-08
            ],
            "min" : [
                39.96717071533203,
                -5.128206253051758,
                -7.500000953674316
            ],
            "type" : "VEC3"
        },
        {
            "bufferView" : 5,
            "componentType" : 5126,
            "count" : 768,
            "type" : "VEC3"
        },
        {
            "bufferView" : 6,
            "componentType" : 5126,
            "count" : 768,
            "type" : "VEC2"
        },
        {
            "bufferView" : 7,
            "componentType" : 5123,
            "count" : 1242,
            "type" : "SCALAR"
        },
        {
            "bufferView" : 8,
            "componentType" : 5126,
            "count" : 402,
            "max" : [
                59.96097183227539,
                -1.4871795177459717,
                -0.019999928772449493
            ],
            "min" : [
                39.97345733642578,
                -20.51282501220703,
                -0.019999992102384567
            ],
            "type" : "VEC3"
        },
        {
            "bufferView" : 9,
            "componentType" : 5126,
            "count" : 402,
            "type" : "VEC3"
        },
        {
            "bufferView" : 10,
            "componentType" : 5126,
            "count" : 402,
            "type" : "VEC2"
        },
        {
            "bufferView" : 11,
            "componentType" : 5123,
            "count" : 435,
            "type" : "SCALAR"
        },
        {
            "bufferView" : 12,
            "componentType" : 5126,
            "count" : 326,
            "max" : [
                59.960968017578125,
                1.0794767857369436e-12,
                6.890188330999081e-08
            ],
            "min" : [
                39.97345733642578,
                -20.5128173828125,
                -3.347320521891045e-13
            ],
            "type" : "VEC3"
        },
        {
            "bufferView" : 13,
            "componentType" : 5126,
            "count" : 326,
            "type" : "VEC3"
        },
        {
            "bufferView" : 14,
            "componentType" : 5126,
            "count" : 326,
            "type" : "VEC2"
        },
        {
            "bufferView" : 15,
            "componentType" : 5123,
            "count" : 468,
            "type" : "SCALAR"
        },
        {
            "bufferView" : 16,
            "componentType" : 5126,
            "count" : 420,
            "max" : [
                59.96097183227539,
                -1.4871795177459717,
                6.890189752084552e-08
            ],
            "min" : [
                39.97345733642578,
                -20.51282501220703,
                -0.019999992102384567
            ],
            "type" : "VEC3"
        },
        {
            "bufferView" : 17,
            "componentType" : 5126,
            "count" : 420,
            "type" : "VEC3"
        },
        {
            "bufferView" : 18,
            "componentType" : 5126,
            "count" : 420,
            "type" : "VEC2"
        },
        {
            "bufferView" : 19,
            "componentType" : 5123,
            "count" : 921,
            "type" : "SCALAR"
        },
        {
            "bufferView" : 20,
            "componentType" : 5126,
            "count" : 655,
            "max" : [
                59.960968017578125,
                -5.128206253051758,
                6.890189752084552e-08
            ],
            "min" : [
                39.97345733642578,
                -20.51282501220703,
                -62.95001983642578
            ],
            "type" : "VEC3"
        },
        {
            "bufferView" : 21,
            "componentType" : 5126,
            "count" : 655,
            "type" : "VEC3"
        },
        {
            "bufferView" : 22,
            "componentType" : 5126,
            "count" : 655,
            "type" : "VEC2"
        },
        {
            "bufferView" : 23,
            "componentType" : 5123,
            "count" : 1524,
            "type" : "SCALAR"
        },
        {
            "bufferView" : 24,
            "componentType" : 5126,
            "count" : 768,
            "max" : [
                59.960968017578125,
                -2.512821674346924,
                1.722547438021138e-08
            ],
            "min" : [
                39.96717071533203,
                -5.128206253051758,
                -7.500000953674316
            ],
            "type" : "VEC3"
        },
        {
            "bufferView" : 25,
            "componentType" : 5126,
            "count" : 768,
            "type" : "VEC3"
        },
        {
            "bufferView" : 26,
            "componentType" : 5126,
            "count" : 768,
            "type" : "VEC2"
        },
        {
            "bufferView" : 27,
            "componentType" : 5123,
            "count" : 1242,
            "type" : "SCALAR"
        },
        {
            "bufferView" : 28,
            "componentType" : 5126,
            "count" : 402,
            "max" : [
                59.96097183227539,
                -1.4871795177459717,
                -0.019999928772449493
            ],
            "min" : [
                39.97345733642578,
                -20.51282501220703,
                -0.019999992102384567
            ],
            "type" : "VEC3"
        },
        {
            "bufferView" : 29,
            "componentType" : 5126,
            "count" : 402,
            "type" : "VEC3"
        },
        {
            "bufferView" : 30,
            "componentType" : 5126,
            "count" : 402,
            "type" : "VEC2"
        },
        {
            "bufferView" : 31,
            "componentType" : 5123,
            "count" : 435,
            "type" : "SCALAR"
        },
        {
            "bufferView" : 32,
            "componentType" : 5126,
            "count" : 326,
            "max" : [
                59.960968017578125,
                1.0794767857369436e-12,
                6.890188330999081e-08
            ],
            "min" : [
                39.97345733642578,
                -20.5128173828125,
                -3.347320521891045e-13
            ],
            "type" : "VEC3"
        },
        {
            "bufferView" : 33,
            "componentType" : 5126,
            "count" : 326,
            "type" : "VEC3"
        },
        {
            "bufferView" : 34,
            "componentType" : 5126,
            "count" : 326,
            "type" : "VEC2"
        },
        {
            "bufferView" : 35,
            "componentType" : 5123,
            "count" : 468,
            "type" : "SCALAR"
        },
        {
            "bufferView" : 36,
            "componentType" : 5126,
            "count" : 420,
            "max" : [
                59.96097183227539,
                -1.4871795177459717,
                6.890189752084552e-08
            ],
            "min" : [
                39.97345733642578,
                -20.51282501220703,
                -0.019999992102384567
            ],
            "type" : "VEC3"
        },
        {
            "bufferView" : 37,
            "componentType" : 5126,
            "count" : 420,
            "type" : "VEC3"
        },
        {
            "bufferView" : 38,
            "componentType" : 5126,
            "count" : 420,
            "type" : "VEC2"
        },
        {
            "bufferView" : 39,
            "componentType" : 5123,
            "count" : 921,
            "type" : "SCALAR"
        }
    ],
    "bufferViews" : [
        {
            "buffer" : 0,
            "byteLength" : 7860,
            "byteOffset" : 0
        },
        {
            "buffer" : 0,
            "byteLength" : 7860,
            "byteOffset" : 7860
        },
        {
            "buffer" : 0,
            "byteLength" : 5240,
            "byteOffset" : 15720
        },
        {
            "buffer" : 0,
            "byteLength" : 3048,
            "byteOffset" : 20960
        },
        {
            "buffer" : 0,
            "byteLength" : 9216,
            "byteOffset" : 24008
        },
        {
            "buffer" : 0,
            "byteLength" : 9216,
            "byteOffset" : 33224
        },
        {
            "buffer" : 0,
            "byteLength" : 6144,
            "byteOffset" : 42440
        },
        {
            "buffer" : 0,
            "byteLength" : 2484,
            "byteOffset" : 48584
        },
        {
            "buffer" : 0,
            "byteLength" : 4824,
            "byteOffset" : 51068
        },
        {
            "buffer" : 0,
            "byteLength" : 4824,
            "byteOffset" : 55892
        },
        {
            "buffer" : 0,
            "byteLength" : 3216,
            "byteOffset" : 60716
        },
        {
            "buffer" : 0,
            "byteLength" : 870,
            "byteOffset" : 63932
        },
        {
            "buffer" : 0,
            "byteLength" : 3912,
            "byteOffset" : 64804
        },
        {
            "buffer" : 0,
            "byteLength" : 3912,
            "byteOffset" : 68716
        },
        {
            "buffer" : 0,
            "byteLength" : 2608,
            "byteOffset" : 72628
        },
        {
            "buffer" : 0,
            "byteLength" : 936,
            "byteOffset" : 75236
        },
        {
            "buffer" : 0,
            "byteLength" : 5040,
            "byteOffset" : 76172
        },
        {
            "buffer" : 0,
            "byteLength" : 5040,
            "byteOffset" : 81212
        },
        {
            "buffer" : 0,
            "byteLength" : 3360,
            "byteOffset" : 86252
        },
        {
            "buffer" : 0,
            "byteLength" : 1842,
            "byteOffset" : 89612
        },
        {
            "buffer" : 0,
            "byteLength" : 7860,
            "byteOffset" : 91456
        },
        {
            "buffer" : 0,
            "byteLength" : 7860,
            "byteOffset" : 99316
        },
        {
            "buffer" : 0,
            "byteLength" : 5240,
            "byteOffset" : 107176
        },
        {
            "buffer" : 0,
            "byteLength" : 3048,
            "byteOffset" : 112416
        },
        {
            "buffer" : 0,
            "byteLength" : 9216,
            "byteOffset" : 115464
        },
        {
            "buffer" : 0,
            "byteLength" : 9216,
            "byteOffset" : 124680
        },
        {
            "buffer" : 0,
            "byteLength" : 6144,
            "byteOffset" : 133896
        },
        {
            "buffer" : 0,
            "byteLength" : 2484,
            "byteOffset" : 140040
        },
        {
            "buffer" : 0,
            "byteLength" : 4824,
            "byteOffset" : 142524
        },
        {
            "buffer" : 0,
            "byteLength" : 4824,
            "byteOffset" : 147348
        },
        {
            "buffer" : 0,
            "byteLength" : 3216,
            "byteOffset" : 152172
        },
        {
            "buffer" : 0,
            "byteLength" : 870,
            "byteOffset" : 155388
        },
        {
            "buffer" : 0,
            "byteLength" : 3912,
            "byteOffset" : 156260
        },
        {
            "buffer" : 0,
            "byteLength" : 3912,
            "byteOffset" : 160172
        },
        {
            "buffer" : 0,
            "byteLength" : 2608,
            "byteOffset" : 164084
        },
        {
            "buffer" : 0,
            "byteLength" : 936,
            "byteOffset" : 166692
        },
        {
            "buffer" : 0,
            "byteLength" : 5040,
            "byteOffset" : 167628
        },
        {
            "buffer" : 0,
            "byteLength" : 5040,
            "byteOffset" : 172668
        },
        {
            "buffer" : 0,
            "byteLength" : 3360,
            "byteOffset" : 177708
        },
        {
            "buffer" : 0,
            "byteLength" : 1842,
            "byteOffset" : 181068
        }
    ],
    "buffers" : [
        {
            "byteLength" : 182912,
            "uri" : "Section7.bin"
        }
    ]
}
