{
    "asset" : {
        "generator" : "Khronos Blender glTF 2.0 I/O",
        "version" : "2.0"
    },
    "scene" : 0,
    "scenes" : [
        {
            "name" : "Scene",
            "nodes" : [
                0
            ]
        }
    ],
    "nodes" : [
        {
            "mesh" : 0,
            "name" : "Section8",
            "rotation" : [
                0.7071068286895752,
                0,
                0,
                0.7071067094802856
            ],
            "scale" : [
                6.404210567474365,
                6.239999771118164,
                6.239999771118164
            ]
        }
    ],
    "materials" : [
        {
            "name" : "Material_0",
            "pbrMetallicRoughness" : {
                "baseColorTexture" : {
                    "index" : 0,
                    "texCoord" : 0
                },
                "metallicFactor" : 0,
                "roughnessFactor" : 0.33290475606918335
            }
        },
        {
            "name" : "Material_1",
            "normalTexture" : {
                "index" : 1,
                "texCoord" : 0
            },
            "pbrMetallicRoughness" : {
                "baseColorTexture" : {
                    "index" : 2,
                    "texCoord" : 0
                },
                "metallicFactor" : 0.07619045674800873,
                "roughnessFactor" : 0.5090952515602112
            }
        },
        {
            "name" : "Material_3",
            "normalTexture" : {
                "index" : 3,
                "texCoord" : 0
            },
            "pbrMetallicRoughness" : {
                "baseColorTexture" : {
                    "index" : 4,
                    "texCoord" : 0
                },
                "metallicFactor" : 0.09047621488571167,
                "roughnessFactor" : 0.27619099617004395
            }
        },
        {
            "name" : "Material_4",
            "normalTexture" : {
                "index" : 5,
                "texCoord" : 0
            },
            "pbrMetallicRoughness" : {
                "baseColorFactor" : [
                    0.20561954379081726,
                    0.20561954379081726,
                    0.20561954379081726,
                    1
                ],
                "metallicFactor" : 1,
                "roughnessFactor" : 0.2281428575515747
            }
        },
        {
            "name" : "Material_5",
            "pbrMetallicRoughness" : {
                "baseColorTexture" : {
                    "index" : 6,
                    "texCoord" : 0
                },
                "metallicFactor" : 0.09047621488571167,
                "roughnessFactor" : 0.27619099617004395
            }
        },
        {
            "emissiveFactor" : [
                1,
                0,
                0.000998774659819901
            ],
            "name" : "Emit",
            "pbrMetallicRoughness" : {
                "baseColorFactor" : [
                    0.800000011920929,
                    0.800000011920929,
                    0.800000011920929,
                    1
                ],
                "metallicFactor" : 0,
                "roughnessFactor" : 0.5
            }
        }
    ],
    "meshes" : [
        {
            "name" : "Mesh_2.010",
            "primitives" : [
                {
                    "attributes" : {
                        "POSITION" : 0,
                        "NORMAL" : 1,
                        "TEXCOORD_0" : 2
                    },
                    "indices" : 3,
                    "material" : 0
                },
                {
                    "attributes" : {
                        "POSITION" : 4,
                        "NORMAL" : 5,
                        "TEXCOORD_0" : 6
                    },
                    "indices" : 7,
                    "material" : 1
                },
                {
                    "attributes" : {
                        "POSITION" : 8,
                        "NORMAL" : 9,
                        "TEXCOORD_0" : 10
                    },
                    "indices" : 11,
                    "material" : 2
                },
                {
                    "attributes" : {
                        "POSITION" : 12,
                        "NORMAL" : 13,
                        "TEXCOORD_0" : 14
                    },
                    "indices" : 15,
                    "material" : 3
                },
                {
                    "attributes" : {
                        "POSITION" : 16,
                        "NORMAL" : 17,
                        "TEXCOORD_0" : 18
                    },
                    "indices" : 19,
                    "material" : 4
                },
                {
                    "attributes" : {
                        "POSITION" : 20,
                        "NORMAL" : 21,
                        "TEXCOORD_0" : 22
                    },
                    "indices" : 23,
                    "material" : 5
                }
            ]
        }
    ],
    "textures" : [
        {
            "source" : 0
        },
        {
            "source" : 1
        },
        {
            "source" : 2
        },
        {
            "source" : 3
        },
        {
            "source" : 4
        },
        {
            "source" : 5
        },
        {
            "source" : 6
        }
    ],
    "images" : [
        {
            "mimeType" : "image/png",
            "name" : "concrete_wallpanelholes_2k_d.png",
            "uri" : "concrete_wallpanelholes_2k_d.png"
        },
        {
            "mimeType" : "image/jpeg",
            "name" : "MetalSteelPlates_normal.jpg",
            "uri" : "MetalSteelPlates_normal.jpg"
        },
        {
            "mimeType" : "image/jpeg",
            "name" : "RustyAnvilIron_basecolor.jpg",
            "uri" : "RustyAnvilIron_basecolor.jpg"
        },
        {
            "mimeType" : "image/png",
            "name" : "Metal_SciFiCompartmentPanelsPaint_1k_n.png",
            "uri" : "Metal_SciFiCompartmentPanelsPaint_1k_n.png"
        },
        {
            "mimeType" : "image/png",
            "name" : "Concrete_TinyCracks_512_Diffuse.png",
            "uri" : "Concrete_TinyCracks_512_Diffuse.png"
        },
        {
            "mimeType" : "image/png",
            "name" : "Metal_ReinforcedWallPanelsWhiteGold_2k_n.tga",
            "uri" : "Metal_ReinforcedWallPanelsWhiteGold_2k_n.png"
        },
        {
            "mimeType" : "image/png",
            "name" : "Concrete_TinyCracks_512_Diffuse.png",
            "uri" : "Concrete_TinyCracks_512_Diffuse.png"
        }
    ],
    "accessors" : [
        {
            "bufferView" : 0,
            "componentType" : 5126,
            "count" : 447,
            "max" : [
                39.97345733642578,
                -5.128206253051758,
                6.890189752084552e-08
            ],
            "min" : [
                19.987510681152344,
                -20.51282501220703,
                -18.750001907348633
            ],
            "type" : "VEC3"
        },
        {
            "bufferView" : 1,
            "componentType" : 5126,
            "count" : 447,
            "type" : "VEC3"
        },
        {
            "bufferView" : 2,
            "componentType" : 5126,
            "count" : 447,
            "type" : "VEC2"
        },
        {
            "bufferView" : 3,
            "componentType" : 5123,
            "count" : 975,
            "type" : "SCALAR"
        },
        {
            "bufferView" : 4,
            "componentType" : 5126,
            "count" : 664,
            "max" : [
                39.97345733642578,
                -2.512821674346924,
                1.6563534472879837e-06
            ],
            "min" : [
                19.987510681152344,
                -5.128206253051758,
                -7.500000953674316
            ],
            "type" : "VEC3"
        },
        {
            "bufferView" : 5,
            "componentType" : 5126,
            "count" : 664,
            "type" : "VEC3"
        },
        {
            "bufferView" : 6,
            "componentType" : 5126,
            "count" : 664,
            "type" : "VEC2"
        },
        {
            "bufferView" : 7,
            "componentType" : 5123,
            "count" : 1092,
            "type" : "SCALAR"
        },
        {
            "bufferView" : 8,
            "componentType" : 5126,
            "count" : 351,
            "max" : [
                39.97370147705078,
                -1.4871795177459717,
                -0.019999928772449493
            ],
            "min" : [
                19.986848831176758,
                -20.51282501220703,
                -0.019999992102384567
            ],
            "type" : "VEC3"
        },
        {
            "bufferView" : 9,
            "componentType" : 5126,
            "count" : 351,
            "type" : "VEC3"
        },
        {
            "bufferView" : 10,
            "componentType" : 5126,
            "count" : 351,
            "type" : "VEC2"
        },
        {
            "bufferView" : 11,
            "componentType" : 5123,
            "count" : 399,
            "type" : "SCALAR"
        },
        {
            "bufferView" : 12,
            "componentType" : 5126,
            "count" : 307,
            "max" : [
                39.97370147705078,
                1.4393029953638226e-12,
                6.890188330999081e-08
            ],
            "min" : [
                19.986846923828125,
                -20.5128173828125,
                -4.4631014379029055e-13
            ],
            "type" : "VEC3"
        },
        {
            "bufferView" : 13,
            "componentType" : 5126,
            "count" : 307,
            "type" : "VEC3"
        },
        {
            "bufferView" : 14,
            "componentType" : 5126,
            "count" : 307,
            "type" : "VEC2"
        },
        {
            "bufferView" : 15,
            "componentType" : 5123,
            "count" : 435,
            "type" : "SCALAR"
        },
        {
            "bufferView" : 16,
            "componentType" : 5126,
            "count" : 30,
            "max" : [
                35.000003814697266,
                -5.128206253051758,
                1.682191623331164e-06
            ],
            "min" : [
                27.500003814697266,
                -12.820514678955078,
                1.722547438021138e-08
            ],
            "type" : "VEC3"
        },
        {
            "bufferView" : 17,
            "componentType" : 5126,
            "count" : 30,
            "type" : "VEC3"
        },
        {
            "bufferView" : 18,
            "componentType" : 5126,
            "count" : 30,
            "type" : "VEC2"
        },
        {
            "bufferView" : 19,
            "componentType" : 5123,
            "count" : 54,
            "type" : "SCALAR"
        },
        {
            "bufferView" : 20,
            "componentType" : 5126,
            "count" : 373,
            "max" : [
                39.97370147705078,
                -1.4871795177459717,
                1.682191623331164e-06
            ],
            "min" : [
                19.986846923828125,
                -20.51282501220703,
                -0.019999992102384567
            ],
            "type" : "VEC3"
        },
        {
            "bufferView" : 21,
            "componentType" : 5126,
            "count" : 373,
            "type" : "VEC3"
        },
        {
            "bufferView" : 22,
            "componentType" : 5126,
            "count" : 373,
            "type" : "VEC2"
        },
        {
            "bufferView" : 23,
            "componentType" : 5123,
            "count" : 840,
            "type" : "SCALAR"
        }
    ],
    "bufferViews" : [
        {
            "buffer" : 0,
            "byteLength" : 5364,
            "byteOffset" : 0
        },
        {
            "buffer" : 0,
            "byteLength" : 5364,
            "byteOffset" : 5364
        },
        {
            "buffer" : 0,
            "byteLength" : 3576,
            "byteOffset" : 10728
        },
        {
            "buffer" : 0,
            "byteLength" : 1950,
            "byteOffset" : 14304
        },
        {
            "buffer" : 0,
            "byteLength" : 7968,
            "byteOffset" : 16256
        },
        {
            "buffer" : 0,
            "byteLength" : 7968,
            "byteOffset" : 24224
        },
        {
            "buffer" : 0,
            "byteLength" : 5312,
            "byteOffset" : 32192
        },
        {
            "buffer" : 0,
            "byteLength" : 2184,
            "byteOffset" : 37504
        },
        {
            "buffer" : 0,
            "byteLength" : 4212,
            "byteOffset" : 39688
        },
        {
            "buffer" : 0,
            "byteLength" : 4212,
            "byteOffset" : 43900
        },
        {
            "buffer" : 0,
            "byteLength" : 2808,
            "byteOffset" : 48112
        },
        {
            "buffer" : 0,
            "byteLength" : 798,
            "byteOffset" : 50920
        },
        {
            "buffer" : 0,
            "byteLength" : 3684,
            "byteOffset" : 51720
        },
        {
            "buffer" : 0,
            "byteLength" : 3684,
            "byteOffset" : 55404
        },
        {
            "buffer" : 0,
            "byteLength" : 2456,
            "byteOffset" : 59088
        },
        {
            "buffer" : 0,
            "byteLength" : 870,
            "byteOffset" : 61544
        },
        {
            "buffer" : 0,
            "byteLength" : 360,
            "byteOffset" : 62416
        },
        {
            "buffer" : 0,
            "byteLength" : 360,
            "byteOffset" : 62776
        },
        {
            "buffer" : 0,
            "byteLength" : 240,
            "byteOffset" : 63136
        },
        {
            "buffer" : 0,
            "byteLength" : 108,
            "byteOffset" : 63376
        },
        {
            "buffer" : 0,
            "byteLength" : 4476,
            "byteOffset" : 63484
        },
        {
            "buffer" : 0,
            "byteLength" : 4476,
            "byteOffset" : 67960
        },
        {
            "buffer" : 0,
            "byteLength" : 2984,
            "byteOffset" : 72436
        },
        {
            "buffer" : 0,
            "byteLength" : 1680,
            "byteOffset" : 75420
        }
    ],
    "buffers" : [
        {
            "byteLength" : 77100,
            "uri" : "Section8.bin"
        }
    ]
}
